<svg xmlns="http://www.w3.org/2000/svg" viewBox="294.15 84.3 1461.67 569"><path fill="#eee4c7" d="M1256.13 198.447a162.18 162.18 0 0 1 111.06 41.283c33.89 29.926 55.78 75.595 58.56 120.675a169.07 169.07 0 0 1-42.1 122.893c-50.59 57.167-132.05 76.066-200.5 39.404-15.1-8.086-26.95-17.493-39.72-28.796-.59 12.339-.16 28.004-.17 40.594.74 39.248.47 79.457.63 118.797l-55.71-.062-.12-448.985c18.1-.316 37.29.053 55.46.099l-.07 42.286c29.09-29.84 71.33-46.236 112.68-48.188m6.38 288.673c64.62-2.577 114.91-57.047 112.34-121.666-2.57-64.618-57.04-114.917-121.66-112.349s-114.93 57.041-112.35 121.666c2.57 64.625 57.05 114.927 121.67 112.349"/><path fill="#eee4c7" d="M1255 280.111c3.41-.123 7.34-.042 10.34 1.775a10.93 10.93 0 0 1 4.98 7.055c2.55 12.398 1.44 55.562 1.6 70.089-.07 28.915.41 57.867-.27 86.773-.21 9.076-3.39 10.913-10.81 14.449a23.2 23.2 0 0 1-5.87-.824c-3.08-.825-6.69-2.391-8.26-5.36-2.55-4.794-2.54-131.681-2.15-146.395.16-6.235.01-14.392 2.05-20.264 1.5-4.282 4.56-5.55 8.39-7.298m-46.14 42.005c3.64-.258 13.61-.274 15.06 4.074 8.28 24.903 4.65 55.827 3.91 82.009-.14 4.743-3.94 7.389-7.34 9.895-11.69.293-17.66.132-18.82-13.584-1.96-22.952-1.71-46.404-.49-69.401.39-7.404 2.38-8.553 7.68-12.993m90.84.059c2.44.226 4.88.561 7.2 1.37 3.1 1.079 5.49 3.643 6.81 6.606 4.56 10.262 3.59 68.837-.78 79.625-1.79 4.431-3.98 6.668-8.34 8.556-2.96-.113-6.36-.401-8.99-1.841-3.31-1.814-4.78-4.881-5.78-8.367-3.86-13.392-4.01-69.533 2.59-81.042 1.83-3.183 3.83-3.984 7.29-4.907m-134.55 29.941c25.58-2.604 25.67 25.422 11.17 36.498-23.32 2.978-25.12-26.266-11.17-36.498m175.64-.108c22.95-.577 24.83 24.254 8.58 36.261-6.44-.249-12.1-1.659-16.07-7.186a17.87 17.87 0 0 1-3.02-13.511c1.19-7.024 4.97-11.599 10.51-15.564M885.807 198.677c94.5-5.669 175.763 66.221 181.653 160.708s-65.81 175.914-160.281 182.029c-94.789 6.135-176.549-65.855-182.46-160.658s66.272-176.392 161.088-182.079m25.722 296.202c69.124-8.41 118.261-71.379 109.621-140.475-8.64-69.097-71.771-118.026-140.838-109.155-68.742 8.83-117.39 71.6-108.79 140.371s71.207 117.629 140.007 109.259"/><path fill="#eee4c7" d="M891.734 261.068c9.721-.434 11.492 1.36 17.518 8.309 2.222 30.261.911 71.452.897 102.609-.012 27.858 1.618 72.076-.81 98.871-3.444 4.025-4.847 5.16-9.058 8.397a97 97 0 0 1-3.402-.336c-13.202-1.557-14.455-9.009-14.627-20.8-.806-57.394-.533-114.85-.111-172.252.095-12.978-1.354-17.024 9.593-24.798m43.631 43.107c2.739-.209 5.525-.212 8.245.221 3.128.497 6.208 2.06 7.995 4.741 6.818 10.231 4.241 102.409 1.428 117.567-.954 5.139-2.142 7.534-6.565 10.586a29.5 29.5 0 0 1-4.19.289c-4.201-.035-9.333-1.763-12.202-4.881-5.617-6.103-3.562-103.771-2.647-119.855 3.027-4.387 3.803-5.289 7.936-8.668m-88.531-.197q.524.006 1.047.024c9.555.273 17.097 2.433 17.4 13.204 1.025 36.471 1.701 76.117.019 112.356-2.785 3.29-4.844 4.866-8.139 7.569-1.835.105-3.661.147-5.495-.001-4.227-.34-7.931-1.485-10.679-4.903-4.289-5.334-4.002-103.546-2.572-116.076.665-5.825 4.168-8.712 8.419-12.173m134.396 39.843c25.51-2.261 24.39 41.627 9.341 53.838-20.699 2.564-20.184-21.835-18.718-35.761.893-8.484 2.626-12.848 9.377-18.077m-178.992.086c20.418-1.167 19.503 21.749 18.346 36.431-.614 7.802-3.578 12.187-9.759 16.737-20.279 2.73-19.704-21.365-18.59-35.185.649-8.055 3.606-13.164 10.003-17.983M1446.11 85.313l55.45.016c.71 52.304.24 105.148.57 157.559 29.58-28.244 61.67-44.612 103.6-44.737A149.08 149.08 0 0 1 1712 242.53a145.1 145.1 0 0 1 37.35 63.41c8.05 29.349 6.04 79.101 6.12 111.138l.32 120.672c-17.75.376-36.77.035-54.61.044.24-64.328.11-128.656-.38-192.982-1.79-26.145-8.11-45.456-26.51-64.953-51.72-54.957-155.28-29.362-169.75 46.607-4.73 24.835-3.1 53.036-3.11 78.527l.32 132.724c-18.65.359-37.3.11-55.93-.746 1.61-20.675.89-45.293.76-66.346l-.44-106.29.46-167.107c.13-36.613.99-75.588-.49-111.915m-984.365 113.11c19.066-2.024 44.574 4.167 62.294 11.627 48.615 20.465 91.842 65.274 100.73 118.622l-54.086-.111c-5.799-15.115-11.841-27.009-22.733-39.313a108.9 108.9 0 0 0-76.034-36.837c-30.815-1.854-60.272 6.62-83.543 27.294a118.25 118.25 0 0 0-39.47 80.937c-6.135 108.833 113.046 168.035 194.1 95.08 15.008-15.295 22.757-28.909 27.522-49.751 17.75-.28 37.759-.58 55.392.369-3.402 27.333-17.805 55.321-35.65 76.166a169.96 169.96 0 0 1-115.294 58.215 163.92 163.92 0 0 1-119.537-40.237 175.05 175.05 0 0 1-60.807-119.496c-3.249-43.665 11.225-89.315 39.941-122.473 34.749-40.125 75.306-56.331 127.175-60.092M645.508 84.326c17.854.525 36.439.298 54.366.307a22331 22331 0 0 1-.036 347.834c-.054 36.149-2.421 55.853 39.264 55.561-.228 9.76 1.204 43.492-.256 49.94-28.012.415-49.097.366-70.521-20.44-24.736-24.024-23.286-53.386-23.31-84.754l.488-69.465-.375-154.246c.171-41.618 1.347-83.087.38-124.737"/><path fill="#eee4c7" d="M1619.04 280.167c6.23-.695 12.51-.107 16.32 5.564 1.35 2.013 2.3 3.719 2.36 6.216.28 12.5.27 25.012.28 37.515.03 25.457-.13 50.913-.47 76.367-.18 14.259-.19 30.176-.81 44.485-.17 3.979-4.79 7.21-7.87 9.386-22.49 2.048-18.75-16.258-18.7-32.634.14-46.593-.77-93.489.43-140.047 2.32-2.277 5.83-4.82 8.46-6.852m-1159.454-.081c15.223-1.392 17.912 5.199 18.144 18.707.848 49.365.351 98.796.425 148.169.008 5.685-4.281 9.244-8.142 12.709-8.279 1.181-17.606-1.046-18.191-11.013-.993-16.93-.68-34.227-.771-51.228q-.36-54.365.145-108.728c3.13-4.34 4.212-5.243 8.39-8.616m42.177 42.146c14.31-.458 20.637 5.142 19.989 20.147-.808 18.719 5.107 61.443-7.471 75.282-4.29.36-16.089.83-17.282-5.026-5.211-25.579-3.323-54.796-2.73-80.987.096-4.256 4.446-7.197 7.494-9.416m-85.868-.04c23.318-3.003 19.648 21.056 19.924 38.396.241 15.123 3.786 48.804-8.233 57.33-2.408.188-4.893.423-7.307.302-3.427-.172-6.826-1.604-9.043-4.299-5.149-6.258-4.039-69.966-2.922-80.791.561-5.44 3.616-7.739 7.581-10.938m1159.065-.093c2.61-.223 5.24-.188 7.84.105 2.39.28 6.24 1.804 7.09 3.618 6.3 13.46 4.79 71.829 3.29 85.149-2.9 3.165-4.77 4.537-8.1 7.095-4.5.209-14.48-.313-15.7-5.972-5.42-25.224-3.7-54.357-2.49-80.204.23-4.821 4.53-7.454 8.07-9.791m87.9 28.011c1.1-.015 2.21.012 3.31.078 19.58 1.289 20.28 27.197 5.71 39.389-14.26-.462-20.42-7.735-19.25-23.352.52-6.985 4.63-12.047 10.23-16.115m-131.08.93.31-.008c22.7-.441 24.05 25.328 9.98 38.334-25.24-1.379-27.37-26.775-10.29-38.326m-1157.334.963c20.519-3.363 26.916 27.548 6.278 37.187-.944-.021-1.788-.061-2.727-.194a17.4 17.4 0 0 1-11.453-6.921c-7.75-10.652-1.784-23.183 7.902-30.072m172.509-.089c21.301.623 24.185 22.327 8.99 35.642-22.129 1.543-24.041-22.372-8.99-35.642m56.319 3.65c7.914-1.747 15.774 3.149 17.695 11.022s-2.8 15.84-10.629 17.935a14.908 14.908 0 0 1-18.131-18.686 14.91 14.91 0 0 1 11.065-10.271"/></svg>