<?xml version="1.0" encoding="utf-8"?>
<svg xmlns="http://www.w3.org/2000/svg" viewBox="7.37 7.12 1001.18 1010.98">
  <defs>
    <!-- Keep the supplied shape but flatten the contrast for a less dramatic gradient. -->
    <linearGradient id="outerShell" gradientUnits="userSpaceOnUse" x1="502.63019" y1="1016.6096" x2="512.5625" y2="7.823391">
      <stop offset="0" stop-color="#222221"/>
      <stop offset="1" stop-color="#313130"/>
    </linearGradient>
    <radialGradient id="innerFace" gradientUnits="userSpaceOnUse" cx="507.96" cy="512.61" r="302">
      <stop offset="0" stop-color="#e2e1df"/>
      <stop offset="1" stop-color="#c8c7c4"/>
    </radialGradient>
  </defs>

  <path fill="url(#outerShell)" d="M175.568 897.199C171.133 894.204 166.726 889.484 162.731 885.871C154.847 878.741 147.535 871.203 140.259 863.46C73.772 791.295 29.9867 701.163 14.3576 604.292C-8.32362 466.375 24.7553 325.099 106.307 211.587C181.805 106.318 304.234 34.4655 431.562 13.5586C563.787 -8.15232 692.96 25.8549 801.084 103.607C908.974 182.811 981.046 301.572 1001.49 433.842C1024 568.858 991.998 707.286 912.515 818.724C894.705 843.9 874.175 867.038 851.296 887.717C833.952 903.187 816.304 915.737 796.808 928.433C734.773 968.832 664.743 999.346 591.396 1011.24C481.47 1029.57 368.572 1010.8 270.483 957.908C256.25 950.4 243.675 942.629 230.089 934.093C217.581 926.234 204.251 919.82 192.355 910.782C190.832 909.625 183.577 904.449 182.909 903.425C180.315 901.529 177.862 899.448 175.568 897.199Z"/>
  <path fill="#161615" d="M493.181 211.209C493.22 211.204 493.259 211.2 493.298 211.195C564.83 207.823 637.47 231.298 691.922 277.602C755.259 331.462 791.894 404.835 797.771 487.47C803.734 566.958 777.686 645.534 725.42 705.718C684.313 753.001 629.555 786.553 568.18 800.471C551.803 804.185 538.043 805.347 521.379 806.526C519.584 806.696 517.789 806.851 515.992 806.99C504.07 807.862 489.872 806.299 477.904 804.993C421.893 798.881 367.625 776.336 324.801 739.378C260.335 683.743 223.59 612.335 217.896 526.925C212.526 448.622 238.297 371.367 289.601 311.969C343.864 249.958 410.668 216.721 493.181 211.209Z"/>
  <path fill="url(#innerFace)" d="M283.561 683.153C247.52 636.104 226.727 573.774 225.509 514.635C225.306 499.053 226.296 483.479 228.47 468.048C238.723 391.553 279.099 322.319 340.629 275.726C398.687 231.271 472.06 211.767 544.53 221.526C606.728 229.974 664.262 259.147 707.834 304.33C715.428 312.156 721.749 318.902 728.331 327.576C777.503 391.118 798.698 471.936 787.037 551.432C775.817 627.756 734.987 696.59 673.387 743.03C615.262 786.966 542.045 805.969 469.89 795.847C396.231 784.844 329.899 745.188 285.337 685.513L283.561 683.153Z"/>
  <path fill="#20201f" d="M481.936 511.131C494.246 511.433 502.175 523.043 496.147 534.372C489.484 546.894 482.559 559.192 475.679 571.593L432.016 649.749L397.796 711.692C391.887 722.431 383.081 739.28 376.424 749.193C374.324 748.346 373.578 747.802 371.644 746.554C364.818 741.706 357.81 737.379 350.898 732.359C375.883 683.644 405 633.765 431.915 585.768C439.831 571.598 447.668 557.385 455.426 543.127C459.917 534.969 464.313 526.265 469.631 518.638C472.758 514.154 476.632 511.99 481.936 511.131Z"/>

  <!-- Warm indicator keeps visible color character while rotating. -->
  <line x1="507.96" y1="512.61" x2="507.96" y2="196" stroke="#f0a45a" stroke-width="18" stroke-linecap="round"/>
  <circle cx="507.96" cy="176" r="10" fill="#f0a45a"/>
</svg>
