<svg xmlns="http://www.w3.org/2000/svg" xmlns:xlink="http://www.w3.org/1999/xlink" viewBox="7.37 7.12 1001.18 1010.98"><defs><linearGradient id="gradient_0" gradientUnits="userSpaceOnUse" x1="502.63019" y1="1016.6096" x2="512.5625" y2="7.823391"><stop offset="0" stop-color="#262525"/><stop offset="1" stop-color="#343333"/></linearGradient><filter id="knob_flatten" color-interpolation-filters="sRGB"><feComponentTransfer><feFuncR type="linear" slope="0.78" intercept="0.11"/><feFuncG type="linear" slope="0.78" intercept="0.11"/><feFuncB type="linear" slope="0.78" intercept="0.11"/></feComponentTransfer></filter></defs><g filter="url(#knob_flatten)"><path fill="url(#gradient_0)" d="M175.568 897.199C171.133 894.204 166.726 889.484 162.731 885.871C154.847 878.741 147.535 871.203 140.259 863.46C73.772 791.295 29.9867 701.163 14.3576 604.292C-8.32362 466.375 24.7553 325.099 106.307 211.587C181.805 106.318 304.234 34.4655 431.562 13.5586C563.787 -8.15232 692.96 25.8549 801.084 103.607C908.974 182.811 981.046 301.572 1001.49 433.842C1024 568.858 991.998 707.286 912.515 818.724C894.705 843.9 874.175 867.038 851.296 887.717C833.952 903.187 816.304 915.737 796.808 928.433C734.773 968.832 664.743 999.346 591.396 1011.24C481.47 1029.57 368.572 1010.8 270.483 957.908C256.25 950.4 243.675 942.629 230.089 934.093C217.581 926.234 204.251 919.82 192.355 910.782C190.832 909.625 183.577 904.449 182.909 903.425C180.315 901.529 177.862 899.448 175.568 897.199Z"/><path fill="#060605" d="M175.568 897.199C177.009 897.38 176.96 897.313 178.213 898.009L178.745 897.787C180.957 896.887 181.067 896.84 183.394 896.706C184.337 897.92 183.355 901.895 182.909 903.425C180.315 901.529 177.862 899.448 175.568 897.199Z"/><path fill="#060605" d="M493.181 211.209C493.22 211.204 493.259 211.2 493.298 211.195C564.83 207.823 637.47 231.298 691.922 277.602C755.259 331.462 791.894 404.835 797.771 487.47C803.734 566.958 777.686 645.534 725.42 705.718C684.313 753.001 629.555 786.553 568.18 800.471C551.803 804.185 538.043 805.347 521.379 806.526C519.584 806.696 517.789 806.851 515.992 806.99C504.07 807.862 489.872 806.299 477.904 804.993C421.893 798.881 367.625 776.336 324.801 739.378C260.335 683.743 223.59 612.335 217.896 526.925C212.526 448.622 238.297 371.367 289.601 311.969C343.864 249.958 410.668 216.721 493.181 211.209Z"/><path fill="#EDEDEC" d="M283.561 683.153C247.52 636.104 226.727 573.774 225.509 514.635C225.306 499.053 226.296 483.479 228.47 468.048C238.723 391.553 279.099 322.319 340.629 275.726C398.687 231.271 472.06 211.767 544.53 221.526C606.728 229.974 664.262 259.147 707.834 304.33C715.428 312.156 721.749 318.902 728.331 327.576C777.503 391.118 798.698 471.936 787.037 551.432C775.817 627.756 734.987 696.59 673.387 743.03C615.262 786.966 542.045 805.969 469.89 795.847C396.231 784.844 329.899 745.188 285.337 685.513L283.561 683.153Z"/><path fill="#FDFCFC" d="M283.561 683.153C284.544 681.649 284.687 681.209 286.275 680.31L287.429 680.382C288.472 681.739 288.197 680.962 288.037 682.867C287.012 684.538 286.917 684.473 285.337 685.513L283.561 683.153Z"/><path fill="#060605" d="M481.936 511.131C494.246 511.433 502.175 523.043 496.147 534.372C489.484 546.894 482.559 559.192 475.679 571.593L432.016 649.749L397.796 711.692C391.887 722.431 383.081 739.28 376.424 749.193C374.324 748.346 373.578 747.802 371.644 746.554C364.818 741.706 357.81 737.379 350.898 732.359C375.883 683.644 405 633.765 431.915 585.768C439.831 571.598 447.668 557.385 455.426 543.127C459.917 534.969 464.313 526.265 469.631 518.638C472.758 514.154 476.632 511.99 481.936 511.131Z"/><path fill="#FDFCFC" d="M294.62 687.236C296.127 688.287 295.584 687.595 296.152 689.495C295.84 691.41 295.909 691.29 294.532 692.654C293.386 691.531 293.386 691.581 292.626 690.184C292.978 688.429 293.118 688.778 294.62 687.236Z"/><path fill="#FDFCFC" d="M368.037 749.705C369.9 750.041 369.688 749.707 370.837 750.795C370.075 752.401 369.548 752.34 367.821 753.528L366.857 753.81L366.3 753.298C366.46 751.768 367.175 750.994 368.037 749.705Z"/><path fill="#535353" d="M415.487 94.576C419.99 91.7781 420.883 79.3848 425.909 75.4363C438.032 65.9118 504.746 63.3491 521.333 63.9729C536.471 64.5423 551.686 66.3417 566.628 68.7867C573.448 69.9028 586.746 71.519 591.873 76.1033C593.83 77.8531 594.825 80.7394 595.777 83.1065C597.125 86.4548 598.369 90.6897 600.57 93.5414C600.721 93.737 600.881 93.9253 601.037 94.1173C606.42 93.9408 618.443 97.7569 624.041 99.401C665.514 111.702 704.893 130.194 740.845 154.252C749.384 159.969 757.485 165.194 765.058 172.228C766.397 173.485 767.71 174.769 768.997 176.079C774.821 175.445 783.917 173.05 789.947 171.815C821.845 194.905 852.008 230.477 871.868 264.222C878.539 275.555 883.798 286.768 890.121 298.012C887.866 304.122 883.75 309.299 882 315.48C880.527 319.565 879.706 321.931 878.773 326.134C878.51 325.584 878.247 325.035 877.984 324.485C879.397 317.763 882.486 308.35 881.012 301.407L880.365 301.053C878.592 302.623 875.943 307.484 874.581 309.764C875.675 305.278 876.857 302.897 878.883 298.814C874.066 290.132 869.734 279.968 864.65 271.418C846.862 241.511 815.854 203.586 787.841 182.91C766.142 188.401 744.763 190.123 723.259 182.567C707.03 176.865 692.033 166.267 676.43 158.834C666.66 154.18 656.53 150.058 646.629 145.781C613.156 131.321 598.93 114.999 583.402 82.8448C538.046 74.1551 478.136 68.9656 433.386 83.4173C422.202 105.864 411.019 123.82 388.286 136.774C374.662 145.47 355.845 150.086 342.302 157.646C302.058 180.11 278.007 196.189 229.155 182.827C200.034 204.681 170.364 240.223 152.022 271.512C147.776 278.754 140.886 290.724 138.604 298.499C139.981 303.065 141.195 305.525 143.25 309.903L137.995 311.217C136.178 310.556 136.847 311.119 135.858 309.544C136.14 307.05 137.151 308.143 139.528 305.225L139.281 304.598L138.222 304.458C134.673 306.194 134.173 306.423 132.767 310.108L132.275 310.012C129.921 305.159 128.817 302.494 126.973 297.391C129.436 292.888 132.046 287.102 134.477 282.377C139.378 272.754 144.697 263.35 150.419 254.191C166.047 229.11 189.92 203.106 212.06 183.75C216.231 180.104 223.174 174.018 227.776 171.233C233.388 173.049 241.666 175.459 247.344 175.997C249.849 172.969 254.378 169.287 257.578 166.949C300.593 135.517 348.591 111.736 399.883 97.2195C404.493 95.9148 410.736 93.9367 415.487 94.576Z"/><path fill="#060605" d="M601.037 94.1173C606.42 93.9408 618.443 97.7569 624.041 99.401C665.514 111.702 704.893 130.194 740.845 154.252C749.384 159.969 757.485 165.194 765.058 172.228C766.397 173.485 767.71 174.769 768.997 176.079C726.686 181.124 706.749 161.548 671.628 144.87C641.27 130.454 618.488 126.788 601.037 94.1173Z"/><path fill="#060605" d="M247.344 175.997C249.849 172.969 254.378 169.287 257.578 166.949C300.593 135.517 348.591 111.736 399.883 97.2195C404.493 95.9148 410.736 93.9367 415.487 94.576C407.979 106.139 398.945 116.481 387.545 124.392C371.619 135.445 350.825 141.254 333.507 150.081C322.079 155.906 311.658 163.372 299.937 168.72C293.965 171.499 287.709 173.62 281.279 175.047C270.832 177.291 258.034 177.454 247.344 175.997Z"/><path fill="#060605" d="M893.193 679.384C894.066 679.468 893.629 679.314 894.438 680.001C894.315 683.653 886.775 699.777 884.903 703.714C864.391 746.137 837.102 784.934 804.109 818.579C797.432 825.316 790.512 832.264 783.035 838.12L782.139 837.874C780.033 833.613 785.902 812.244 787.787 807.396C789.875 802.032 793.454 793.68 796.667 788.866C805.012 776.363 815.48 765.243 824.117 752.913C836.535 735.52 846.578 715.45 861.345 700.027C869.949 691.04 882.062 684.654 893.193 679.384Z"/><path fill="#060605" d="M121.714 678.893C131.828 681.987 147.474 691.437 154.815 699.102C168.988 713.901 179.071 733.707 190.778 750.661C201.948 766.84 217.174 781.137 225.579 798.568C230.559 808.895 234.531 826.435 234.523 837.944C230.319 836.544 219.967 825.806 216.334 822.218C183.486 789.407 156.083 751.566 135.16 710.12C130.501 700.956 124.379 688.638 121.714 678.893Z"/><path fill="#060605" d="M882 315.48C886.71 322.47 891.379 333.722 894.625 341.509C910.208 378.463 920.586 417.401 925.462 457.208C926.331 463.693 926.916 470.213 927.215 476.749C927.477 482.665 927.415 489.308 928.191 495.1C898.653 468.598 899.336 456.575 891.971 419.874C890.069 410.54 887.69 401.309 884.845 392.218C883.872 389.048 880.12 376.263 878.716 374.204C876.506 372.459 874.733 367.173 876.262 364.383C876.201 362.773 876.276 362.157 875.668 360.636C873.318 358.686 873.078 348.538 873.914 345.977L874.114 348.279C874.469 347.497 875.006 343.451 875.179 342.341L875.664 342.84C875.778 342.632 878.498 327.53 878.773 326.134C879.706 321.931 880.527 319.565 882 315.48Z"/><path fill="#535353" d="M875.668 360.636C873.318 358.686 873.078 348.538 873.914 345.977L874.114 348.279C874.469 347.497 875.006 343.451 875.179 342.341L875.664 342.84C875.199 349.464 875.132 353.999 875.668 360.636Z"/><path fill="#535353" d="M878.716 374.204C876.506 372.459 874.733 367.173 876.262 364.383C877.026 367.857 877.667 370.81 878.716 374.204Z"/><path fill="#060605" d="M134.76 316.383C139.496 324.389 140.806 345.369 140.265 354.598C139.527 375.657 129.359 395.511 125.166 415.634C118.717 446.587 118.023 469.498 92.199 492.086L87.9265 496.039C89.5686 445.317 100.154 395.284 119.196 348.244C123.993 336.686 128.229 327.086 134.76 316.383Z"/><path fill="#EDEDEC" d="M332.022 768.795C336.305 770.186 353.275 781.883 357.09 785.085C353.66 792.92 343.916 808.542 339.48 816.839C326.506 841.107 311.75 865.729 299.355 890.228C294.563 886.866 276.539 875.56 273.801 872.833C287.845 845.756 303.733 819.046 318.447 792.285C322.727 784.501 327.353 776.308 332.022 768.795Z"/><path fill="#FDFCFC" d="M296.89 880.001C298.407 880.779 298.014 880.203 298.513 881.476C297.79 882.594 296.537 882.834 295.216 883.332C293.73 882.293 294.214 882.946 293.526 881.46C294.681 880.188 294.852 880.512 296.89 880.001Z"/><path fill="#EDEDEC" d="M260.848 906.322C268.127 900.735 278.223 898.066 284.986 906.982C291.675 915.801 283.257 930.754 274.89 935.45C267.868 940.009 257.866 937.98 253.677 930.566C249.767 923.646 253.468 915.367 257.848 909.432L260.848 906.322Z"/><path fill="#060605" d="M275.371 896.259C278.769 896.248 280.468 896.597 283.814 897.167C278.534 898.512 275.057 898.664 269.607 898.968C267.808 899.209 265.282 898.881 264.026 897.434C266.079 895.851 272.622 896.247 275.371 896.259Z"/><path fill="#060605" d="M257.848 909.432C256.47 907.544 255.758 906.954 256.271 904.574L257.132 904.08C259.284 904.517 258.917 904.697 260.848 906.322L257.848 909.432Z"/></g></svg>