<svg xmlns="http://www.w3.org/2000/svg" viewBox="0 0 2072 512">
  <path fill="#15110f" d="m1138 27 149 1c18 0 74-5 86 10 13 16 5 50 11 72 8-26-7-68 36-70h244l17 15c5-9 10-19 22-22 12-4 172-3 189 0q18 2 34 12c30 17 55 51 64 84 7 27 6 62-9 87q-7 12-17 23c9 16 16 25 20 43 11 45 11 92 10 137 0 7 1 29-1 35-11 29-53 20-77 21-35 0-54 5-81-20a53 53 0 0 1-46 20c-28-1-58 3-85-3-10-2-17-15-21-23-14 21-21 19-44 20h-166l-41-1c-19-1-30-42-45-44-9 2-13 37-30 39q-21 3-44 2h-181q-30 1-62-1c-42-5-18-64-29-76q-4-3-8 0c-14 6-21 33-30 45-43 54-127 66-189 44-36-13-52-27-71-59q-6-14-16-26-6-6-15-3-3 2-5 7c-7 24 18 54-14 71-16 9-141 3-168 3l-49 1q-20 2-40-1c-17-1-22-8-31-21-4 7-13 18-21 19-26 2-56 1-82 1h-85l-48-1c-28 0-30-23-45-41-10-13-36-19-38-38q-3-33-2-66V72q0-16 13-26c12-8 31-6 45-6h160q31-1 62 1c34 2 27 32 32 56v-1c3-4 2-24 2-30 1-42 42-35 73-35h144c73 0 90-9 86 74-1 24 26 26 21-4-2-16 9-40 28-39 76-3 153 1 230-1q16-1 31 4c22 24 12 21 16 52q1 4 5 7l6-1c4-6 1-52 2-61l4-17q8-14 23-17c22-2 49-1 71-1"/>
  <path fill="#eaeadd" d="M1291 72c14 0 34-3 45 7 12 11 7 114 7 136l1 29-1 37 3 69 15 7v2c-6 5-20-3-20 13-1 15 13 39-2 51-10 8-29 5-41 6-13 0-27 3-40 1q-30-5-37-35c-3-14-7-35-26-36-10 0-36-2-44 5-14 12 5 42-12 54-8 6-28 10-38 8-25-3-10-44-21-60q-1-3-6-4c-4 0-16-1-19-4 4-6 21-8 23-10 9-13 0-44 2-57 6-25 7-23-1-46-2-5 4-30 3-37v-29c2-29-4-60 2-89 5-20 37-15 53-14 13 0 31-1 43 4 14 13 23 52 31 71l21 47c6 16 9 47 25 56q5 2 9 1c28-7-7-144 9-172q6-9 16-11"/>
  <path fill="#15110f" d="M1157 198h4c11 6 22 38 26 49 6 20 27 76 18 95q-4 5-12 8c-11 2-29 4-39-2q-5-4-6-10c-4-18 0-36 0-54 1-24-4-66 9-87"/>
  <path fill="#eaeadd" d="m787 88 50 1c18 13 7 32 16 48q4 8 11 9c9 2 24 2 31-2 12-7 10-22 13-33q2-11 12-16c13-8 38-7 53-3 27 7 9 31 18 47 5 8 16 9 24 11q-13 0-25 7l1 32-3 38 1 8c2 6 16 5 20 9-2 7-23 1-25 14-2 14 3 28 4 42 2 17-8 36-1 52q7 8 19 9c-11 4-14 4-22 12-6 12-5 26-16 35l-19 11c-13 7-24 17-39 20q-41 9-81-5c-13-4-31-12-39-23-15-20-10-36-35-51l16-7c4-26-5-31-5-51 0-22 5-28 1-53q-7 0-10-6l9-7c-1-33 9-46-1-81l-9-6c33-19-8-42 31-61"/>
  <path fill="#15110f" d="M876 152q12-1 22 3l4 3 5 72q-3 8-9 16l4 15q2 19 1 37c0 11 6 45-1 53-6 7-20 7-29 8q-9 0-19-3-6-1-9-7c-8-17-3-44-2-62q-2-15 0-30l3-11q-4-11-6-26c-1-17 2-49 14-62 6-6 14-5 22-6"/>
  <path fill="#eaeadd" d="m1705 138 6-3c16-8 8-25 13-39 1-5 9-16 14-17 29-8 63-2 92-1q29 0 56 2c10 2 23 9 31 14 30 19 12 32 52 45l-12 5c-15 10-2 34-11 51s-27 26-32 43v6c7 11 19 18 26 30 10 17 13 45 14 65l-2 14 8 10-7 7c7 13 10 16 25 22-12 5-24 12-25 26q0 11-11 18a114 114 0 0 1-43-3c-14-4-26-10-29-26l-2-17q-5-13-8-27c-1-23 9-57-3-77q-6-10-17-12-12-3-22 2-5 3-6 10l-5 56 4 18c2 16 0 38-4 55-1 6-4 15-10 19-8 4-19-1-27 0-8 0-18 6-26 3-35-9-11-58-18-69-1-4-11-5-14-6l17-5c1-22-2-30-4-51l-3-64 3-17q-4-21-5-42c-1-14 5-23 2-35-1-4-12-8-17-10"/>
  <path fill="#15110f" d="M1826 140q14-1 29 3 8 2 11 9c6 10 6 27 2 38q-4 14-17 21l-9 4q-10 5-21 1-7-3-9-10c-5-12-3-48 2-59q5-6 12-7"/>
  <path fill="#eaeadd" d="M477 74c28-1 57 5 86 4 23-2 61 3 79 22 19 21 9 25 40 39h-1c-33 17-6 29-20 56-11 20-25 21-33 46 6 12 17 18 26 29 13 16 14 44 16 64 2 14-10 14 7 27l-7 6a116 116 0 0 0-1 55q-5 7-13 13c-26 1-55-2-71-26 0-20-6-32-9-51l2-14c0-17 5-43-5-59q-5-9-16-12-12-3-23 1-4 3-5 8c-2 7-6 51-6 58l5 27q1 22-4 45-2 12-12 20c-8 5-17-1-26 0s-17 6-26 3c-34-8-10-59-17-68-2-4-10-5-14-6 4-1 16-4 17-9 2-17-3-35-4-52l-3-51 1-30-4-43c-1-8 7-20 3-28-3-6-11-8-16-10l14-8c0-34 1-52 40-56"/>
  <path fill="#15110f" d="M539 140q16-1 32 2 8 3 12 10c5 10 5 27 1 38q-4 14-18 21c-8 3-17 8-26 5q-6-1-10-7c-7-12-5-45-1-59q2-7 10-10"/>
  <path fill="#eaeadd" d="M1516 72h14c33 0 67 12 89 37 7 7 10 15 18 23q8 1 15 6c-1 4-15 8-14 13 11 41 0 44-35 50-72 13-22-56-68-60-38-4-31 11-32 40-1 19-2 43-1 63 0 5 6 13 11 14 19 5 139-6 146 6-5 4-13 2-17 9-1 7 3 10 2 15l-1 58c0 6-5 10-3 16 3 5 13 6 19 8q3 1 1 4c-7 5-22-5-19 19 1 9 3 20-3 27-8 10-26 14-37 6-9-6-3-19-9-24-11-2-16 17-29 23q-25 9-51 11c-35 2-61-7-80-38-7-12-13-18-27-23l8-7c9-13 4-36 4-51l-3-39q-2-9-9-14c13-13 7-17 0-32l10-22c3-12-1-26 0-38 1-8 6-13 6-23-3-8-8-4-15-9 0-6 14-7 19-7 17-44 47-56 91-61"/>
  <path fill="#15110f" d="M1518 303q14 2 26 9 11 9 14 24 2 13-5 24-4 6-11 7c-9 1-22 3-30 0q-6-3-9-9c-5-11-2-30 2-41q3-11 13-14"/>
  <path fill="#eaeadd" d="M235 72h16c32 0 67 12 89 36l18 24c5 1 13 2 15 6-1 4-8 7-12 9-4 7 4 22 2 33-3 22-44 24-62 22-27-2-16-37-27-53-7-12-33-11-44-5-8 5-4 38-5 45-1 10-6 59 2 64 25 15 62 3 90 4 10 1 61 2 65 6-3 6-10 3-15 6-5 4-1 19-1 26l-1 26v23c0 5-5 14-2 19 2 4 12 5 16 6l4 3c-3 6-17 0-19 9-3 19 7 48-22 49-34 1-18-20-28-29-5 0-23 21-31 25-13 7-32 9-46 10-85 5-68-48-110-61l12-11c4-16-1-57-1-75 0-13-3-17-12-25 15-14 6-17 1-33 2-7 9-17 10-23 3-20-4-35 6-54 5-10-13-11-16-15 4-8 15-3 19-7 6-7 7-17 13-24 18-23 48-32 76-36"/>
  <path fill="#15110f" d="M238 303q17 1 29 10 12 11 13 27 2 12-5 22-4 4-10 4-13 3-27 2-6-1-11-7c-6-9-4-24-2-34q2-15 13-24"/>
</svg>
