<svg xmlns="http://www.w3.org/2000/svg" xmlns:xlink="http://www.w3.org/1999/xlink" viewBox="911.37 208.1 411.05 827.4"><path fill="#010101" transform="scale(2.17383 2.17763)" d="M520.64 95.7044C544.188 93.7823 565.799 113.809 575.702 133.154C578.568 138.751 592.02 163.822 588.528 167.902C582.174 175.325 555.107 189.654 545.357 193.886C543.895 192.126 540.822 186.914 539.618 184.777C532.681 172.45 527.494 164.118 513.449 159.457C492.028 154.912 481.122 172.146 467.996 185.119L467.728 184.997C458.29 180.557 449.081 173.696 440.493 167.74C433.579 162.881 437.303 157.123 440.322 151.411C457.277 119.331 483.756 98.2655 520.64 95.7044Z"/><path fill="#010101" transform="scale(2.17383 2.17763)" d="M566.29 441.466C572.662 441.1 579.218 443.967 585.435 445.355C589.476 446.257 594.858 446.361 598.479 448.075C601.059 451.049 594.607 458.561 592.331 460.733C579.576 472.902 562.436 475.691 545.414 475.499C532.823 474.864 523.598 473.109 512.645 467.036C518.469 461.15 529.822 452.317 536.487 447.264C537.349 447.469 538.216 447.657 539.085 447.827C550.981 450.164 556.644 448.009 566.29 441.466Z"/><path fill="#010101" transform="scale(2.17383 2.17763)" d="M591.847 185.439C593.122 185.472 593.168 185.54 594.289 186.225C597.764 190.649 600.795 205.676 602.208 211.607C598.209 213.816 590.721 216.453 586.287 218.121L559.665 228.012C554.763 226.778 551.121 213.747 549.462 209.108C557.999 202.01 581.46 190.225 591.847 185.439Z"/><path fill="#010101" transform="scale(2.17383 2.17763)" d="M503.784 218.861L504.738 219.359C507.046 222.627 507.341 230.894 507.459 234.991C503.049 241.398 490.924 255.045 483.204 258.249C478.094 260.371 466.11 259.744 460.564 258.003C458.781 257.443 458.102 254.585 457.605 252.838C455.9 243.288 456.597 234.671 460.275 225.725C467.348 228.346 474.058 233.106 482.018 236.043C492.422 229.95 495.102 225.168 503.784 218.861Z"/><path fill="#010101" transform="scale(2.17383 2.17763)" d="M518.24 240.882C526.733 243.069 547.525 257.227 554.296 263.465C554.163 268.475 555.176 280.718 550.044 282.694C548.153 282.85 546.581 281.835 544.84 280.983C531.173 273.478 486.309 257.492 518.24 240.882Z"/><path fill="#010101" transform="scale(2.17383 2.17763)" d="M602.434 224.075C607.214 225.922 605.161 245.556 604.233 249.911C595.567 254.247 575.379 259.105 565.239 261.875C562.463 255.803 561.917 246.828 562.069 240.27C570.918 235.75 592.779 226.487 602.434 224.075Z"/><path fill="#010101" transform="scale(2.17383 2.17763)" d="M600.357 265.169C601.069 265.062 601.982 265.188 602.719 265.249C606.541 269.049 600.881 291.39 598.462 293.192C594.667 296.02 571.653 294.162 566.767 293.925C566.179 293.825 564.231 293.499 563.798 293.281C558.397 290.564 563.261 277.776 564.799 274.543C572.275 270.759 591.59 266.386 600.357 265.169Z"/><path fill="#010101" transform="scale(2.17383 2.17763)" d="M497.449 259.286C501.574 260.082 508.268 272.165 505.696 275.005C497.277 284.303 486.472 295.163 475.675 301.723C474.798 302.255 473.6 301.194 472.944 300.713C467.823 293.173 462.684 281.032 461.781 271.834C468.382 269.778 475.965 270.566 482.7 271.633C489.771 267.392 491.638 265.105 497.449 259.286Z"/><path fill="#010101" transform="scale(2.17383 2.17763)" d="M519.382 278.953C526.435 281.125 543.575 292.758 549.292 297.826C548.138 303.286 546.188 313.846 543.076 318.505C542.331 319.619 541.803 319.416 540.553 319.526C534.295 317.274 520.144 311.95 517.21 306.172C510.298 292.559 504.131 287.975 519.382 278.953Z"/><path fill="#010101" transform="scale(2.17383 2.17763)" d="M587.578 360.025C592.149 361.278 596.55 373.176 597.571 377.527C588.835 382.622 571.734 388.955 562.114 392.532C556.434 393.657 554.931 386.898 553.722 382.677C553.203 380.867 551.721 376.159 552.518 374.572C555.803 371.441 582.769 361.281 587.578 360.025Z"/><path fill="#010101" transform="scale(2.17383 2.17763)" d="M493.959 360.588C500.813 360.327 510.337 365.534 515.671 369.702C517.124 374.73 518.112 382.221 518.939 387.528C513.18 384.807 508.268 380.166 502.047 378.577C501.152 378.349 499.071 379.097 498.154 379.422C479.31 383.29 472.588 397.522 471.405 366.998C478.597 364.667 486.642 362.596 493.959 360.588Z"/><path fill="#010101" transform="scale(2.17383 2.17763)" d="M497.721 187.044C498.673 187.002 500.049 186.893 500.775 187.538C503.874 190.291 503.782 199.702 504.045 203.644C499.246 210.728 489.72 219.396 482.563 224.094C480.505 223.287 478.049 221.962 476.037 220.948C474.185 219.9 471.475 218.475 469.837 217.218C462.182 211.345 472.371 201.873 476.959 197.861C483.16 192.44 489.978 189.301 497.721 187.044Z"/><path fill="#010101" transform="scale(2.17383 2.17763)" d="M556.32 308.457C561.165 308.528 587.949 312.036 591.551 313.713C593.277 318.437 587.861 331.299 586.002 336.015L585.276 336.445C579.067 336.114 556.004 326.9 550.613 323.235C552.072 316.779 553.087 314.257 556.32 308.457Z"/><path fill="#010101" transform="scale(2.17383 2.17763)" d="M517.155 208.786C518.482 208.967 521.628 209.971 522.852 210.558C531.754 214.83 546.88 219.486 550.477 229.593C552.252 234.582 554.213 241.052 552.171 246.058C542.116 241.184 532.596 235.862 522.863 230.369C515.22 226.056 513.711 216.426 517.155 208.786Z"/><path fill="#010101" transform="scale(2.17383 2.17763)" d="M429.992 176.805C436.489 178.615 458.497 189.672 461.748 195.103C462.418 198.406 458.204 205.407 456.429 208.439C451.52 209.216 428.834 198.233 424.753 194.755C425.11 188.392 427.51 182.575 429.992 176.805Z"/><path fill="#010101" transform="scale(2.17383 2.17763)" d="M422.162 206.635C427.857 208.191 448.362 214.999 451.433 219.003C452.796 223.255 449.684 230.636 448.214 234.838L447.27 235.591C441.399 236.167 425.512 231.346 419.523 229.153C419.309 220.648 420.187 214.88 422.162 206.635Z"/><path fill="#010101" transform="scale(2.17383 2.17763)" d="M606.411 415.256C610.973 417.722 606.083 435.64 605.007 439.479C596.334 439.257 588.119 437.298 579.607 435.619C578.775 435.451 577.948 435.259 577.127 435.043C575.478 434.595 574.638 434.232 573.763 432.736C571.318 416.446 589.461 418.788 600.255 416.097C602.036 415.652 604.535 415.484 606.411 415.256Z"/><path fill="#010101" transform="scale(2.17383 2.17763)" d="M500.733 387.496L502.172 387.711C504.585 389.692 508.471 403.093 507.205 405.026C504.903 408.538 484.969 414.194 481.128 415.385C479.36 415.648 479.87 415.84 478.599 415.098C475.86 410.98 474.958 402.209 474.413 397.244C481.914 393.452 492.637 390.182 500.733 387.496Z"/><path fill="#010101" transform="scale(2.17383 2.17763)" d="M420.567 243.753C427.482 243.339 440.817 244.918 448.251 245.62C448.906 249.385 451.376 261.425 450.219 264.78L448.889 265.369C439.833 265.478 430.964 265.836 421.88 265.742C420.385 261.55 417.611 247.109 420.567 243.753Z"/><path fill="#010101" transform="scale(2.17383 2.17763)" d="M600.662 387.024L601.957 387.785C604.968 392.59 606.046 400.55 606.714 406.149C598.005 408.786 586.084 410.894 577.122 412.625C572.921 412.316 573.442 408.194 572.064 404.963C571.274 403.113 570.841 400.232 571.36 398.269C574.283 394.964 595.278 388.563 600.662 387.024Z"/><path fill="#010101" transform="scale(2.17383 2.17763)" d="M444.358 274.715C447.336 274.551 450.762 274.553 453.78 274.485C460.39 294.773 457.311 291.489 438.384 295.776C435.82 296.49 433.007 296.872 430.366 297.3C426.582 289.631 425.545 284.82 424.462 276.361C430.125 275.374 438.442 275.087 444.358 274.715Z"/><path fill="#010101" transform="scale(2.17383 2.17763)" d="M460.176 299.546C460.599 299.542 461.897 299.697 462.386 299.744C466.323 302.081 468.448 307.678 470.216 311.81C464.936 316.06 451.933 322.211 445.598 325.398C441.091 321.094 437.045 313.014 434.745 307.237C442.656 304.208 451.973 301.772 460.176 299.546Z"/><path fill="#010101" transform="scale(2.17383 2.17763)" d="M473.927 319.357C477.787 320.149 482.992 327.229 485.533 330.431C479.789 336.004 469.18 344.839 462.445 348.673C457.964 345.092 452.789 337.935 449.814 333.026L473.927 319.357Z"/><path fill="#010101" transform="scale(2.17383 2.17763)" d="M507.626 415.038L509.5 414.933C511.471 415.883 512.43 418.283 513.339 420.246C518.296 430.938 494.617 437.414 487.086 440.493C484.775 439.062 481.125 426.483 480.09 423.272C489.302 420.641 498.481 417.896 507.626 415.038Z"/><path fill="#010101" transform="scale(2.17383 2.17763)" d="M519.884 437.063C522.853 438.378 525.796 442.284 527.899 444.813C522.795 449.73 511.822 459.301 504.723 461.65C503.221 462.146 501.952 461.149 500.655 460.303C495.902 456.058 493.412 453.152 490.982 447.007C500.174 443.526 510.495 440.223 519.884 437.063Z"/><path fill="#010101" transform="scale(2.17383 2.17763)" d="M498.473 296.343C504.176 296.642 506.121 308.256 507.506 313.126C503.729 317.849 497.671 323.855 491.788 325.444C472.165 314.101 487.139 305.353 498.473 296.343Z"/><path fill="#010101" transform="scale(2.17383 2.17763)" d="M516.653 185.031C523.924 184.822 529.109 186.044 534.93 190.608C540.694 195.125 545.58 200.558 540.141 207.277C533.961 205.055 504.625 194.973 516.653 185.031Z"/><path fill="#010101" transform="scale(2.17383 2.17763)" d="M503.919 167.063C509.78 166.68 520.533 168.408 524.146 173.599C524.353 175.307 524.486 174.608 523.459 176.241C520.893 178.098 507.403 178.956 503.621 179.33C499.654 179.76 487.659 182.86 485.949 178.907C487.047 173.349 498.844 168.517 503.919 167.063Z"/><path fill="#010101" transform="scale(2.17383 2.17763)" d="M541.596 400.552C546.695 400.394 559.47 398.482 561.401 403.793C560.96 408.335 555.856 412.199 552.55 415.161C549.982 417.034 548.108 418.525 544.769 418.156C542.409 417.917 540.248 416.729 538.782 414.864C537.158 412.826 536.444 410.21 536.805 407.629C537.305 404.162 538.939 402.508 541.596 400.552Z"/><path fill="#010101" transform="scale(2.17383 2.17763)" d="M524.847 422.535C532.934 422.066 549.858 431.548 545.481 441.207C538.392 439.788 519.385 432.05 524.847 422.535Z"/><path fill="#010101" transform="scale(2.17383 2.17763)" d="M527.24 387.871C528.872 389.358 529.852 392.06 530.68 394.104C527.573 401.805 528.188 410.095 520.41 413.689C512.582 407.103 519.693 392.361 527.24 387.871Z"/><path fill="#010101" transform="scale(2.17383 2.17763)" d="M564.837 416.311C570.191 417.822 567.458 426.386 565.813 429.777C563.813 433.902 562.412 435.988 558.593 438.472C549.966 430.058 558.727 422.378 564.837 416.311Z"/><path fill="#010101" transform="scale(2.17383 2.17763)" d="M543.287 380.36C546.703 382.58 549.256 387.728 547.984 391.748C546.578 393.185 547.06 392.764 544.762 393.124C538.056 390.72 535.307 384.357 543.287 380.36Z"/></svg>